<svg width="22" height="22" viewBox="0 0 22 22" fill="none" xmlns="http://www.w3.org/2000/svg">
<path d="M10.3613 21.3398C9.76562 21.3398 9.32617 20.9883 9.19922 20.4121L8.71094 18.3516C8.37891 18.2344 8.06641 18.1074 7.77344 17.9707L5.97656 19.084C5.48828 19.3867 4.91211 19.3379 4.51172 18.9375L3.26172 17.6777C2.85156 17.2773 2.79297 16.6816 3.11523 16.1934L4.21875 14.4062C4.08203 14.1133 3.95508 13.8008 3.85742 13.498L1.77734 13.0098C1.20117 12.8828 0.859375 12.4434 0.859375 11.8574V10.0996C0.859375 9.52344 1.20117 9.07422 1.77734 8.94727L3.83789 8.44922C3.95508 8.10742 4.08203 7.80469 4.19922 7.54102L3.0957 5.71484C2.7832 5.2168 2.82227 4.66016 3.24219 4.25L4.51172 2.99023C4.93164 2.60938 5.43945 2.55078 5.9375 2.82422L7.76367 3.94727C8.05664 3.80078 8.37891 3.67383 8.71094 3.56641L9.19922 1.48633C9.32617 0.910156 9.76562 0.558594 10.3613 0.558594H12.1484C12.7344 0.558594 13.1738 0.910156 13.3008 1.48633L13.7988 3.57617C14.1309 3.69336 14.4434 3.82031 14.7266 3.95703L16.5625 2.82422C17.0605 2.55078 17.5781 2.61914 17.9883 2.99023L19.2578 4.25C19.6777 4.66016 19.7168 5.2168 19.4043 5.71484L18.3008 7.54102C18.418 7.80469 18.5547 8.10742 18.6621 8.44922L20.7227 8.94727C21.2988 9.07422 21.6406 9.52344 21.6406 10.0996V11.8574C21.6406 12.4434 21.2988 12.8828 20.7227 13.0098L18.6426 13.498C18.5449 13.8008 18.418 14.1133 18.2812 14.4062L19.3848 16.1934C19.707 16.6816 19.6484 17.2773 19.248 17.6777L17.9883 18.9375C17.5879 19.3379 17.0117 19.3867 16.5332 19.084L14.7266 17.9707C14.4336 18.1074 14.1211 18.2344 13.7891 18.3516L13.3008 20.4121C13.1738 20.9883 12.7344 21.3398 12.1484 21.3398H10.3613ZM11.25 14.3672C13.1348 14.3672 14.668 12.8242 14.668 10.9395C14.668 9.07422 13.1348 7.54102 11.25 7.54102C9.375 7.54102 7.8418 9.07422 7.8418 10.9395C7.8418 12.8242 9.375 14.3672 11.25 14.3672Z" fill="white"/>
</svg>
